# xmcd
#
# Track frame offsets: 
#        150
#        14250
#        28550
#        52190
#        69138
#        85465
#        102425
#        121160
#        139308
#        155008
#        176633
#        210338
#
# Disc length: 2996 seconds
#
# Revision: 5
# Processed by: cddbd v1.5.2PL0 Copyright (c) Steve Scherf et al.
# Submitted via: ExactAudioCopy v1.0b3
#
DISCID=a10bb20c
DTITLE=Nanci Griffith - One Fair Summer Evening
DYEAR=1988
DGENRE=Folk
TTITLE0=Once in a Very Blue Moon
TTITLE1=Looking for the Time (Workin' Girl)
TTITLE2=Deadwood, South Dakota
TTITLE3=More Than a Whisper
TTITLE4=I Would Bring You Ireland
TTITLE5=Roseville Fair
TTITLE6=Workin' in Corners
TTITLE7=Trouble in the Fields
TTITLE8=The Wing and the Wheel
TTITLE9=From a Distance
TTITLE10=Love at the Five and Dime
TTITLE11=Spin on a Red Brick Floor
EXTD=
EXTT0=
EXTT1=
EXTT2=
EXTT3=
EXTT4=
EXTT5=
EXTT6=
EXTT7=
EXTT8=
EXTT9=
EXTT10=
EXTT11=
PLAYORDER=
